# xmcd
#
# Track frame offsets:
#	150
#	20326
#	39076
#	55726
#	82577
#	107402
#	122927
#	141152
#	160952
#	177903
#	199129
#	215030
#	240230
#	258755
#	277656
#	294157
#	313988
#	331088
#
# Disc length: 4616 seconds
#
# Revision: 0
# Processed by: cddbd v1.5.1PL2 Copyright (c) Steve Scherf et al.
# Submitted via: audiograbber 1.83.01
#
DISCID=e9120612
DTITLE=Verschiedene Interpreten - Kuschel Rock 7
DYEAR=1900
DGENRE=
TTITLE0=Patty Smyth and Don Henly - Some
TTITLE1=Michael Bolton - To love someb
TTITLE2=Gloria Estefan - I see Your Sm
TTITLE3=George Michael - Tonight
TTITLE4=Frankie goes to Hollywood - Th
TTITLE5=Shakespear's Sister - Hello (T
TTITLE6=Firehouse - When I look into Y
TTITLE7=Soul Asylum - Runaway Train
TTITLE8=Richard marx - Chains around m
TTITLE9=Zucchero and Randy Crawford - Di
TTITLE10=Dob Russkin - Heart of Hearts
TTITLE11=George Benson - The Greatest o
TTITLE12=Celine Dion and Peabo Bryson - B
TTITLE13=Stephen Bishop - It might be Y
TTITLE14=Vanessa Williams - Save the Be
TTITLE15=Bryan May - Too much Love will
TTITLE16=A-HA - Dark is the Night
TTITLE17=Tasmin Archer - Sleeping Satel
EXTD=
EXTT0=
EXTT1=
EXTT2=
EXTT3=
EXTT4=
EXTT5=
EXTT6=
EXTT7=
EXTT8=
EXTT9=
EXTT10=
EXTT11=
EXTT12=
EXTT13=
EXTT14=
EXTT15=
EXTT16=
EXTT17=
PLAYORDER=
